<svg width="269" height="68" viewBox="0 0 269 68" xmlns="http://www.w3.org/2000/svg"><title>uk_parliament_logo</title><g fill="#FFF"><path d="M96.34 5.7v19c0 7.45-5.38 9.9-11.19 9.9S74 32.13 74 24.68V5.7h5.14v17.59c0 4.76 1.92 7.06 6 7.06s6.05-2.31 6.05-7V5.7h5.15zM115.62 34l-8.46-12.15h-2V34H100V5.7h5.14v11.73h2.11l7.89-11.73h6l-9.56 13.74L121.87 34h-6.25zM74 67V38.71h9.08c7.06 0 10.09 3.27 10.09 9s-3.36 9.37-9.61 9.37h-4.42V67H74zm5.14-14.17H83c3.7 0 4.95-1.87 4.95-4.9 0-3.27-1.68-4.95-5-4.95h-3.81v9.85zm33.6 8.45c0 1.59.72 2 1.63 2a3.29 3.29 0 0 0 1.3-.24v3.79a6.54 6.54 0 0 1-2.79.53c-2.64 0-4.27-1.1-4.8-3.55-1.1 2.79-3.6 3.75-6.53 3.75-3.89 0-6.58-2.26-6.58-6.05 0-4.9 3.84-7.69 12.78-7.25v-2.5c0-2.5-1.39-3.55-3.55-3.55a3.31 3.31 0 0 0-3.6 3.46l-4.9-.82c.34-4.71 4.42-6.58 8.84-6.58 4.76 0 8.21 2 8.21 7l-.01 10.01zm-5-3.94C102.27 57.2 100 58.5 100 61a2.83 2.83 0 0 0 3.17 2.88c2.11 0 4.56-1.2 4.56-3.65l.01-2.89zm38.52-21.96a3.09 3.09 0 0 1 3.31 3.17 3.27 3.27 0 0 1-6.53 0 3.06 3.06 0 0 1 3.22-3.17zm2.55 9.43V67h-5V44.81h5zm20.68 16.47c0 1.59.72 2 1.63 2a3.29 3.29 0 0 0 1.3-.24v3.79a6.54 6.54 0 0 1-2.79.53c-2.64 0-4.27-1.1-4.8-3.55-1.1 2.79-3.6 3.75-6.53 3.75-3.89 0-6.58-2.26-6.58-6.05 0-4.9 3.84-7.69 12.78-7.25v-2.5c0-2.5-1.39-3.55-3.55-3.55a3.31 3.31 0 0 0-3.6 3.46l-4.9-.82c.34-4.71 4.42-6.58 8.84-6.58 4.76 0 8.21 2 8.21 7l-.01 10.01zm-5-3.94c-5.48-.14-7.73 1.15-7.73 3.65a2.83 2.83 0 0 0 3.17 2.88c2.11 0 4.56-1.2 4.56-3.65v-2.88zm35.07-13.06c3.7 0 6.48 2 6.48 6.77V67h-5V52.83c0-2.64-1-4.27-3.41-4.27S193 50.19 193 54.42V67h-5V52.83c0-2.64-1-4.27-3.46-4.27s-4.54 1.63-4.54 5.9V67h-5V44.81h4l.62 4.27a6.74 6.74 0 0 1 6.87-4.8c3.07 0 5.43 1.3 6 4.9 1.17-3.51 3.95-4.9 7.07-4.9zM224 60.23l4.37 1.3c-1 4.52-4.8 6.05-9.08 6.05-6.05 0-10.18-4.13-10.18-11.43 0-7.49 4-11.86 10.37-11.86 5.91 0 9 4 9 9.61a12.14 12.14 0 0 1-.38 3H214c.19 4 2.07 6.77 5.52 6.77a4.19 4.19 0 0 0 4.48-3.44zm-.43-6.63a5.22 5.22 0 0 0 0-.86 4.3 4.3 0 0 0-4.37-4.61c-2.93 0-4.8 2.07-5.14 5.48l9.51-.01zm12.85-4.52c1.2-3.31 3.75-4.8 7.11-4.8 3.55 0 6.68 2 6.68 6.92V67h-5V52.88c0-2.64-1.06-4.32-3.6-4.32s-4.8 1.34-4.8 5.91V67h-5V44.81h4.08l.53 4.27zm31.85 17.15a11.75 11.75 0 0 1-5.86 1.34c-4.13 0-6.68-2.11-6.68-6.53V48.75h-3.22v-3.94h3.22l1.15-6.09h3.94v6.09h6.58v3.94h-6.63V60c0 2.35 1 3.31 2.83 3.31a6.12 6.12 0 0 0 3.75-1.3l.92 4.22zM123.08 50.86l-.62-6.05h-4.27V67h5V56.14c0-4.42 3-6.48 6-6.48h.69v-5.28c-3.99.44-6.01 3.06-6.8 6.48zM139.54 63a1.74 1.74 0 0 1-2-1.92v-24.9h-5v26.11c0 3.6 2.5 5.09 5.43 5.09a9.46 9.46 0 0 0 3-.53v-4a4.76 4.76 0 0 1-1.43.15zM52.86 4.12l-.68.35a6.91 6.91 0 0 1 .51 5.11A4.57 4.57 0 0 1 51 7l-.68.35a20 20 0 0 1-2.59 5.82l.19.73a5 5 0 0 1 2.28-.55 5 5 0 0 1 .81.07 4.6 4.6 0 0 1-8.34.3 2 2 0 0 0 1.1-1.37c.19-.87-.36-1.28-.17-2.16a1.62 1.62 0 0 1 3.18.12 2.07 2.07 0 1 0-2.52-3.24 4.35 4.35 0 0 0 .63-1.47 4.46 4.46 0 0 0-.82-3.6 4.47 4.47 0 0 0-2.32 3 4.35 4.35 0 0 0-.05 1.6 2.07 2.07 0 1 0-3.65 1.89A1.62 1.62 0 0 1 41 9.67c-.19.87-.87 1-1.06 1.89a2 2 0 0 0 .24 1.44l.11.17A5.35 5.35 0 0 1 31.65 9v-.48a7.29 7.29 0 0 1 4.28 2.33l.57-.57V3.87l-.58-.58a7.29 7.29 0 0 1-4.27 2.32A5 5 0 0 1 35.39.76L34.8.17A67.352 67.352 0 0 0 30 0c-1.613 0-3.213.057-4.8.17l-.59.59a5 5 0 0 1 3.74 4.84 7.29 7.29 0 0 1-4.27-2.32l-.58.58v6.4l.57.57a7.29 7.29 0 0 1 4.28-2.33V9a5.35 5.35 0 0 1-8.61 4.24l.09-.18a2 2 0 0 0 .24-1.45c-.19-.87-.87-1-1.06-1.89a1.62 1.62 0 0 1 2.94-1.23A2.07 2.07 0 1 0 18.3 6.6a4.35 4.35 0 0 0-.06-1.6 4.47 4.47 0 0 0-2.32-3 4.46 4.46 0 0 0-.85 3.69 4.35 4.35 0 0 0 .63 1.47 2.07 2.07 0 1 0-2.52 3.24 1.62 1.62 0 0 1 3.18-.12c.19.87-.36 1.28-.17 2.16a2 2 0 0 0 1.1 1.37A4.6 4.6 0 0 1 9 13.48a5 5 0 0 1 .81-.07 5 5 0 0 1 2.28.55l.19-.73a20 20 0 0 1-2.64-5.84L9 7a4.57 4.57 0 0 1-1.69 2.58 6.91 6.91 0 0 1 .51-5.11l-.68-.35c-1.19.41-2.8 1.06-4 1.58L10 21.11a49.23 49.23 0 0 1 39.95 0L56.83 5.7c-1.17-.52-2.78-1.17-3.97-1.58z"/><path d="M59 33a3.87 3.87 0 0 0-3-3.89v-2.22A4 4 0 0 0 55 19a3.86 3.86 0 0 0-3.89 3H8.89A3.87 3.87 0 0 0 5 19a3.89 3.89 0 0 0-4 4 3.87 3.87 0 0 0 3 3.89v2.23a4 4 0 0 0 0 7.77v2.23a4 4 0 0 0 0 7.77v2.23a4 4 0 0 0 0 7.77v2.23A4 4 0 0 0 5 67a4 4 0 0 0 1-7.89v-2.22a4 4 0 0 0 0-7.77v-2.23a4 4 0 0 0 0-7.77v-2.23a4 4 0 0 0 0-7.77v-2.23A3.82 3.82 0 0 0 8.89 24H11v43h.46A28.42 28.42 0 0 1 16 58.52V58h-2v-6h5v6h-1v.55A31.3 31.3 0 0 1 20.8 67h.39A31.3 31.3 0 0 1 24 58.55V58h-1v-6h5v6h-1v.55A31.3 31.3 0 0 1 29.8 67h.39A31.3 31.3 0 0 1 33 58.55V58h-1v-6h5v6h-1v.55A31.3 31.3 0 0 1 38.8 67h.39A31.3 31.3 0 0 1 42 58.55V58h-1v-6h5v6h-2v.52A28.42 28.42 0 0 1 48.54 67H49V24h2.11A3.81 3.81 0 0 0 54 26.89v2.23a4 4 0 0 0 0 7.77v2.23a4 4 0 0 0 0 7.77v2.23a4 4 0 0 0 0 7.77v2.23a4 4 0 1 0 2 0v-2.23a4 4 0 0 0 0-7.77v-2.23a4 4 0 0 0 0-7.77v-2.23A3.87 3.87 0 0 0 59 33zM7 63a1.89 1.89 0 0 1-2 2 2 2 0 0 1-1-3.78A1 1 0 0 0 5 62a1 1 0 0 0 1-.78A1.89 1.89 0 0 1 7 63zm0-10a1.89 1.89 0 0 1-1 1.78A1 1 0 0 0 5 54a1 1 0 0 0-1 .78 2.07 2.07 0 0 1 0-3.57A1 1 0 0 0 5 52a1 1 0 0 0 1-.78A1.89 1.89 0 0 1 7 53zm0-10a1.89 1.89 0 0 1-1 1.78A1 1 0 0 0 5 44a1 1 0 0 0-1 .78 2.07 2.07 0 0 1 0-3.57A1 1 0 0 0 5 42a1 1 0 0 0 1-.78A1.89 1.89 0 0 1 7 43zM6 24.78A1 1 0 0 0 5 24a1 1 0 0 0-1 .78A2 2 0 0 1 5 21a2 2 0 0 1 1 3.78zM19 49h-5v-6h5v6zm0-9h-5v-6h5v6zm0-9h-5v-6h5v6zm9 18h-5v-6h5v6zm0-9h-5v-6h5v6zm0-9h-5v-6h5v6zm9 18h-5v-6h5v6zm0-9h-5v-6h5v6zm0-9h-5v-6h5v6zm9 18h-5v-6h5v6zm0-9h-5v-6h5v6zm0-9h-5v-6h5v6zm7-8a2 2 0 1 1 3 1.78 1 1 0 0 0-2 0A1.89 1.89 0 0 1 53 23zm4 40a2 2 0 1 1-3-1.78 1 1 0 0 0 2 0A1.89 1.89 0 0 1 57 63zm0-10a1.89 1.89 0 0 1-1 1.78 1 1 0 0 0-2 0 2.07 2.07 0 0 1 0-3.57 1 1 0 0 0 2 0A1.89 1.89 0 0 1 57 53zm0-10a1.89 1.89 0 0 1-1 1.78 1 1 0 0 0-2 0 2.07 2.07 0 0 1 0-3.57 1 1 0 0 0 2 0A1.89 1.89 0 0 1 57 43zM7 33a1.89 1.89 0 0 1-1 1.78A1 1 0 0 0 5 34a1 1 0 0 0-1 .78 2.07 2.07 0 0 1 0-3.57A1 1 0 0 0 5 32a1 1 0 0 0 1-.78A1.89 1.89 0 0 1 7 33zm50 0a1.89 1.89 0 0 1-1 1.78 1 1 0 0 0-2 0 2.07 2.07 0 0 1 0-3.57 1 1 0 0 0 2 0A1.89 1.89 0 0 1 57 33z"/></g></svg>